<svg id="Слой_1" data-name="Слой 1" xmlns="http://www.w3.org/2000/svg" viewBox="0 0 133.3 40"><defs><style>.cls-1{fill:#c0c1c1;}.cls-2{fill:#fff;}.cls-3{fill:#c8102e;fill-rule:evenodd;}</style></defs><path class="cls-1" d="M123.78-.07H7.38a9.67,9.67,0,0,0-2,.14A4.41,4.41,0,0,0,3.52.73a6.25,6.25,0,0,0-1.6,1.2,12.58,12.58,0,0,0-1.2,1.6A10,10,0,0,0,.05,5.4a10.35,10.35,0,0,0-.13,2V32.6a10.35,10.35,0,0,0,.13,2,4.47,4.47,0,0,0,.67,1.87,6.13,6.13,0,0,0,1.2,1.6,12.13,12.13,0,0,0,1.6,1.2,10.62,10.62,0,0,0,1.86.66,9.67,9.67,0,0,0,2,.14H125.92a9.67,9.67,0,0,0,2-.14,4.41,4.41,0,0,0,1.86-.66,6.25,6.25,0,0,0,1.6-1.2,7.05,7.05,0,0,0,1.2-1.6,7.52,7.52,0,0,0,.67-1.87,10.35,10.35,0,0,0,.13-2V7.4a10.35,10.35,0,0,0-.13-2,4.47,4.47,0,0,0-.67-1.87,6.13,6.13,0,0,0-1.2-1.6,12.13,12.13,0,0,0-1.6-1.2,10.62,10.62,0,0,0-1.86-.66,9.67,9.67,0,0,0-2-.14h-2.14"/><path d="M8.32,39H7.38a9.6,9.6,0,0,1-1.86-.13,4.54,4.54,0,0,1-1.6-.54,3.31,3.31,0,0,1-1.34-1.06,8.87,8.87,0,0,1-1.06-1.34A7.54,7.54,0,0,1,1,34.33a9.6,9.6,0,0,1-.13-1.86V7.27A9.7,9.7,0,0,1,1,5.4a4.54,4.54,0,0,1,.54-1.6A3.35,3.35,0,0,1,2.58,2.47,9.66,9.66,0,0,1,3.92,1.4,7,7,0,0,1,5.52.87,8.93,8.93,0,0,1,7.38.73H125.92a8.93,8.93,0,0,1,1.86.14,7,7,0,0,1,1.6.53,3.34,3.34,0,0,1,1.34,1.07,5.1,5.1,0,0,1,1.06,1.33,7.74,7.74,0,0,1,.54,1.6,9.06,9.06,0,0,1,.13,1.87v25.2a9.6,9.6,0,0,1-.13,1.86,4.54,4.54,0,0,1-.54,1.6,5,5,0,0,1-1.06,1.34,8.87,8.87,0,0,1-1.34,1.06,7.54,7.54,0,0,1-1.6.54,9.6,9.6,0,0,1-1.86.13H8.32Z"/><path class="cls-2" d="M45.38,25.4h3.47l-1.2-3.33c-.13-.4-.4-.94-.53-1.47a4.92,4.92,0,0,1-.54,1.47Zm4,1.6H44.72l-1.07,3.07h-2l4.53-11.6h1.87l4.67,11.6H50.58Zm9.34.93a4,4,0,0,0,.66-2.4,3.37,3.37,0,0,0-.53-2.13,1.65,1.65,0,0,0-1.33-.67,2.59,2.59,0,0,0-1.07.27,3.68,3.68,0,0,0-.93.67v4.66c.13.14.4.14.66.27s.54.13.8.13a2,2,0,0,0,1.74-.8m-5.2-4.4V21.4h1.86a2.82,2.82,0,0,1,.14,1.07,3.55,3.55,0,0,1,2.66-1.2,3.48,3.48,0,0,1,1.6.4A2.82,2.82,0,0,1,61,23a6.42,6.42,0,0,1,.4,2.4,4.73,4.73,0,0,1-.53,2.53,4.2,4.2,0,0,1-1.47,1.6,3.89,3.89,0,0,1-2.13.54,8,8,0,0,1-1.73-.27v3.6l-2,.13Zm14.26,4.4a3.94,3.94,0,0,0,.67-2.4,3.37,3.37,0,0,0-.53-2.13,1.65,1.65,0,0,0-1.34-.67,2.5,2.5,0,0,0-1.06.27,3.91,3.91,0,0,0-.94.67v4.66c.14.14.4.14.67.27s.53.13.8.13a2,2,0,0,0,1.73-.8m-5.2-4.4V21.4h1.87a3,3,0,0,1,.13,1.07,3.56,3.56,0,0,1,2.67-1.2,3.51,3.51,0,0,1,1.6.4A2.93,2.93,0,0,1,70.05,23a6.42,6.42,0,0,1,.4,2.4,4.73,4.73,0,0,1-.53,2.53,4.2,4.2,0,0,1-1.47,1.6,3.91,3.91,0,0,1-2.13.54,8.07,8.07,0,0,1-1.74-.27v3.6l-2,.13Zm11.6,6a7.19,7.19,0,0,1-2-2,7.36,7.36,0,0,1-.66-3.06,6.45,6.45,0,0,1,.8-3.34,4.43,4.43,0,0,1,2.13-2,7.41,7.41,0,0,1,3.07-.66,8,8,0,0,1,1.86.26,6.92,6.92,0,0,1,1.74.67l-.54,1.47a6.38,6.38,0,0,0-2.93-.8,3.88,3.88,0,0,0-2.13.53,3.84,3.84,0,0,0-1.47,1.47,4.54,4.54,0,0,0-.53,2.4,5,5,0,0,0,.4,2.13,3.22,3.22,0,0,0,1.2,1.47,3.37,3.37,0,0,0,2.13.53,3.78,3.78,0,0,0,1.2-.13,2.59,2.59,0,0,0,1.07-.27V25.8H76.85V24.33h4.53v4.8a9.49,9.49,0,0,1-2.13.67,12.05,12.05,0,0,1-2.13.27,5.32,5.32,0,0,1-2.94-.54m13.2-1.06a2.13,2.13,0,0,0,1.07-.8v-1.6c-.53,0-.93-.14-1.33-.14a3.1,3.1,0,0,0-1.74.4A1.56,1.56,0,0,0,85,27.4a1,1,0,0,0,.4.93,1.13,1.13,0,0,0,.94.27c.13.13.66,0,1.06-.13m1.07,1.6a3.4,3.4,0,0,1-.13-1.2,3,3,0,0,1-1.2.93,3.54,3.54,0,0,1-1.6.4,3.79,3.79,0,0,1-1.34-.27,2.09,2.09,0,0,1-.93-.93,2.66,2.66,0,0,1-.4-1.47,2.42,2.42,0,0,1,.93-2,4.73,4.73,0,0,1,3.07-.8,6.19,6.19,0,0,1,1.6.14v-.14c0-.8-.13-1.33-.53-1.6a2.08,2.08,0,0,0-1.34-.53,4.62,4.62,0,0,0-1.33.13,7.19,7.19,0,0,0-1.2.4l-.27-1.46a13.08,13.08,0,0,1,1.34-.4A7.77,7.77,0,0,1,87,21.13a4,4,0,0,1,1.87.4,2.68,2.68,0,0,1,1.2,1.2,5.31,5.31,0,0,1,.4,2.27v5.07Zm3.6-2.14V17.8l2-.13v10c0,.4,0,.66.13.8a.72.72,0,0,0,.54.26,1,1,0,0,0,.53-.13l.27,1.47a1,1,0,0,1-.67.13,1.73,1.73,0,0,0-.8.13,2.08,2.08,0,0,1-2-2.4m4.93,0V17.8l2-.13v10c0,.4,0,.66.14.8a.68.68,0,0,0,.53.26,1,1,0,0,0,.53-.13l.27,1.47a1,1,0,0,1-.67.13,1.75,1.75,0,0,0-.8.13,2.08,2.08,0,0,1-2-2.4m9.74-3.2a2.85,2.85,0,0,0-.54-1.6,1.28,1.28,0,0,0-1.2-.53,1.3,1.3,0,0,0-1.2.53,3.64,3.64,0,0,0-.66,1.6Zm1.86,1.2H103c.14,1.87.94,2.67,2.54,2.67a3.78,3.78,0,0,0,1.2-.13l1.2-.4.4,1.33a6.33,6.33,0,0,1-3.2.67,3.81,3.81,0,0,1-2.27-.54,3.89,3.89,0,0,1-1.47-1.46,6.53,6.53,0,0,1-.53-2.4,4.54,4.54,0,0,1,.53-2.4,4.2,4.2,0,0,1,1.47-1.6,3.62,3.62,0,0,1,2.13-.54,3.21,3.21,0,0,1,2,.54,4,4,0,0,1,1.2,1.46,5.51,5.51,0,0,1,.4,2.14v.66Zm1.6-2.4V21.4h1.74a1.73,1.73,0,0,0,.13.8V23a5.34,5.34,0,0,1,.67-.93,3.2,3.2,0,0,1,.8-.67,2.5,2.5,0,0,1,1.06-.27,1.6,1.6,0,0,1,.8.14L115.12,23a6.15,6.15,0,0,0-.67-.13,1.85,1.85,0,0,0-1.2.4,4.62,4.62,0,0,0-1.07,1.2v5.46h-2Zm6.4,10a5.89,5.89,0,0,1-.66-.13l.4-1.47c.13,0,.26.14.53.14h.53c.94,0,1.47-.54,2-1.74l.14-.26-3.2-8.67h2.13l1.6,4.8c.27.8.4,1.47.53,1.87a10.13,10.13,0,0,1,.54-1.87l1.46-4.8h2l-3.2,8.67a13.6,13.6,0,0,1-.93,2,2.86,2.86,0,0,1-1.2,1.06,3.65,3.65,0,0,1-1.73.4,1.09,1.09,0,0,1-.94,0"/><path class="cls-3" d="M27,7.13H15.92c-5.2,0-7.2,1.87-7.2,7.2V25.4c0,5.2,1.86,7.2,7.2,7.2H27c5.2,0,7.2-1.87,7.2-7.2V14.33c-.13-5.2-2-7.2-7.2-7.2"/><path class="cls-2" d="M19.78,21.93h1.07l-.53-1.2Zm-.26.67-.27.67h-.67l1.47-3.34h.53l1.47,3.34h-.67l-.26-.67Zm11.06.67h.67V19.93h-.67ZM27.92,21.8h1.2v-.67h-1.2v-.66h1.73V19.8h-2.4v3.33h2.53v-.66H27.92Zm-2.67.4-.8-2.27h-.53l-.8,2.27-.8-2.27h-.67l1.2,3.34h.53l.8-2.14.8,2.14h.54l1.2-3.34h-.67Zm-7.73-.4a.71.71,0,0,1-.8.8.71.71,0,0,1-.8-.8V19.93h-.67V21.8a1.34,1.34,0,0,0,1.47,1.47,1.33,1.33,0,0,0,1.46-1.47V19.93h-.66Zm-3.87-1.87h.67v3.34h-.67V21.93H12.18v1.34h-.66V19.93h.66v1.34h1.47Zm7.73-4.26a4.21,4.21,0,0,1-4.26-4.27h.53a3.6,3.6,0,0,0,7.2,0h.53a3.92,3.92,0,0,1-4,4.27M45.25,13.4a1.37,1.37,0,0,0,.67-.8,2.59,2.59,0,0,0,.26-1.07,2.61,2.61,0,0,0-.13-1.06,2.71,2.71,0,0,0-.53-.8,2.26,2.26,0,0,0-2.14,0,1.36,1.36,0,0,0-.66.8,2.36,2.36,0,0,0-.27,1.06,2.69,2.69,0,0,0,.13,1.07,1.83,1.83,0,0,0,.67.8,2,2,0,0,0,2,0m-2.53.67A1.91,1.91,0,0,1,41.78,13a2.7,2.7,0,0,1-.26-1.47,3.17,3.17,0,0,1,.4-1.6A2.63,2.63,0,0,1,43,8.87a2.83,2.83,0,0,1,1.6-.4,2.66,2.66,0,0,1,1.47.4A2.39,2.39,0,0,1,47,9.93a2.63,2.63,0,0,1,.27,1.47,2.81,2.81,0,0,1-.4,1.6,2.75,2.75,0,0,1-1.07,1.07,2.89,2.89,0,0,1-1.6.4,2.43,2.43,0,0,1-1.46-.4m6.4-4.54H47.38l.14-.8h4.4l-.14.8H50.05v4.94h-.93Zm8,4.8H56.05L54.32,11.8h-.67v2.53h-.93V8.6h.93V11h.53l1.2-1.73c.14-.27.4-.4.54-.54a1,1,0,0,1,.66-.13c.27,0,.4,0,.54.13l-.27.8a.5.5,0,0,1-.27-.13c-.13,0-.26,0-.26.13s-.14.14-.27.27L55,11.27Zm3.2-3.06c.26-.14.26-.4.26-.8a1.14,1.14,0,0,0-.26-.8,1.89,1.89,0,0,0-.94-.27h-.53v2h.53a1.05,1.05,0,0,0,.94-.13M57.92,8.6h1.6a2.56,2.56,0,0,1,1.6.4,1.41,1.41,0,0,1,.53,1.33,1.89,1.89,0,0,1-.27.94,1.61,1.61,0,0,1-.66.66,2.44,2.44,0,0,1-1.07.27,1.73,1.73,0,0,1-.8-.13V14.2h-.93Zm8.13,4.8a1.37,1.37,0,0,0,.67-.8A2.59,2.59,0,0,0,67,11.53a2.61,2.61,0,0,0-.13-1.06,2.71,2.71,0,0,0-.53-.8,2.26,2.26,0,0,0-2.14,0,1.36,1.36,0,0,0-.66.8,2.36,2.36,0,0,0-.27,1.06,2.69,2.69,0,0,0,.13,1.07,1.83,1.83,0,0,0,.67.8,2.59,2.59,0,0,0,1.07.27,2,2,0,0,0,.93-.27m-2.53.67A1.91,1.91,0,0,1,62.58,13a2.7,2.7,0,0,1-.26-1.47,3.17,3.17,0,0,1,.4-1.6,2.63,2.63,0,0,1,1.06-1.06,2.83,2.83,0,0,1,1.6-.4,2.66,2.66,0,0,1,1.47.4,2.39,2.39,0,0,1,.93,1.06,2.63,2.63,0,0,1,.27,1.47,2.81,2.81,0,0,1-.4,1.6,2.75,2.75,0,0,1-1.07,1.07,2.89,2.89,0,0,1-1.6.4,2.73,2.73,0,0,1-1.46-.4m7.2-5.87a1.93,1.93,0,0,1-.54-.4c-.13-.13-.13-.4-.26-.53h.66c.14.4.27.66.8.66s.67-.26.8-.66h.67a1,1,0,0,1-.27.53,1.73,1.73,0,0,1-.53.4,1.48,1.48,0,0,1-.8.13,1.33,1.33,0,0,1-.53-.13M73,14.33V9.8l-2.8,4.53H69.12V8.6h.93V13l2.8-4.4h1.07v5.73Zm3.47-4.8H74.72l.13-.8h4.4l-.13.8H77.38v4.94h-.93Zm3.6-.93h3.33l-.13.8H81V11h2.14v.8H81v1.73h2.4l-.13.8H79.92Zm9.6,4.8c.27-.13.27-.4.27-.67a1,1,0,0,0-.27-.66,1.86,1.86,0,0,0-.93-.27h-.67v1.87h.8a1.44,1.44,0,0,0,.8-.27M88.05,11h.67c.26,0,.4,0,.53-.13s.27-.14.4-.27a.5.5,0,0,0,.13-.4.68.68,0,0,0-.26-.53c-.14-.14-.4-.14-.8-.14h-.67V11Zm2.27.53c.13.14.4.27.53.54a1.21,1.21,0,0,1,.13.66,1.88,1.88,0,0,1-.26.8,1.38,1.38,0,0,1-.67.54,2.59,2.59,0,0,1-1.07.26H87.12V8.6h1.73a1.73,1.73,0,0,1,1.33.4,1.2,1.2,0,0,1,.4.93,1.14,1.14,0,0,1-.26.8,1.26,1.26,0,0,1-.8.54,5.81,5.81,0,0,1,.8.26"/></svg>