<svg xmlns="http://www.w3.org/2000/svg">

    <symbol viewBox="0 0 16 16" fill="currentColor" id="star-full">
        <path d="M8.451 1.49a1 1 0 00-.902 0c-.245.123-.378.359-.461.528-.09.182-.185.427-.296.712l-.928 2.39a3.374 3.374 0 01-.07.173v.002H5.79c-.036.006-.086.01-.184.02l-2.504.214c-.272.024-.51.044-.695.077-.176.032-.418.09-.6.274a1 1 0 00-.28.826c.03.256.186.45.307.583.126.139.302.3.503.485l1.987 1.823.125.118.002.002v.003c-.006.033-.016.079-.036.168l-.592 2.66a9.167 9.167 0 00-.145.73c-.024.184-.042.445.087.68a1 1 0 00.733.508c.265.038.504-.072.667-.16a9.15 9.15 0 00.632-.392l2.036-1.332c.086-.056.13-.085.164-.104L8 12.476l.003.002c.033.019.078.048.164.104l2.036 1.332c.246.161.458.3.632.393.163.087.401.197.667.159a1 1 0 00.733-.508c.13-.235.11-.496.087-.68a9.199 9.199 0 00-.145-.73l-.592-2.66c-.02-.09-.03-.135-.035-.168v-.003l.001-.002.125-.118 1.987-1.823c.201-.185.377-.346.503-.485.12-.133.276-.327.308-.583a1 1 0 00-.281-.826c-.182-.183-.424-.242-.6-.274-.185-.033-.423-.053-.695-.077l-2.504-.215a3.372 3.372 0 01-.184-.018h-.003l-.002-.003a3.421 3.421 0 01-.069-.172l-.928-2.39a9.644 9.644 0 00-.296-.713c-.083-.17-.216-.405-.46-.529z"></path>
    </symbol>

    <symbol viewBox="0 0 24 24" fill="currentColor" id="search">
        <path fill-rule="evenodd" clip-rule="evenodd" d="M18.293 19.707l-4-4 1.414-1.414 4 4a1 1 0 01-1.414 1.414z"></path>
        <path fill-rule="evenodd" clip-rule="evenodd" d="M10.5 16a5.5 5.5 0 100-11 5.5 5.5 0 000 11zm0 2a7.5 7.5 0 100-15 7.5 7.5 0 000 15z" ></path>
    </symbol>

    <symbol viewBox="0 0 24 24" fill="currentColor" id="arrow-right">
        <path fill-rule="evenodd" clip-rule="evenodd" d="M8.237 3.356a.994.994 0 00.122 1.409c2.83 2.362 6.585 5.738 8.225 7.224L8.34 19.253a.994.994 0 00-.084 1.411c.37.413 1.008.45 1.424.083l8.815-7.765c.187-.164.35-.343.436-.582a1.19 1.19 0 00.006-.787c-.082-.24-.24-.42-.424-.587-1.113-1.012-5.583-5.061-8.853-7.79a1.015 1.015 0 00-1.422.12z"></path>
    </symbol>

    <symbol viewBox="0 0 16 16" fill="currentColor" id="arrow-left">
        <path fill-rule="evenodd" clip-rule="evenodd" d="M10.576 2.52a.75.75 0 01-.096 1.056C8.71 5.05 6.94 6.524 5.17 8c1.768 1.476 3.54 2.95 5.309 4.424a.75.75 0 01-.96 1.152l-5.28-4.4a5.191 5.191 0 01-.322-.282 1.267 1.267 0 01-.311-.465 1.25 1.25 0 010-.858c.077-.213.209-.363.311-.465.093-.092.21-.19.321-.282l5.28-4.4a.75.75 0 011.057.096z"></path>
    </symbol>

    <symbol viewBox="0 0 24 24" fill="currentColor" id="menu">
        <path d="M4 7a1 1 0 011-1h14a1 1 0 110 2H5a1 1 0 01-1-1zM4 12a1 1 0 011-1h14a1 1 0 110 2H5a1 1 0 01-1-1zM5 16a1 1 0 100 2h14a1 1 0 100-2H5z"></path>
    </symbol>

    <symbol viewBox="0 0 13 13" id="arrow-full-right">
        <path d="M1 5.483h11m0 0L7.286 1M12 5.483L7.286 10" stroke="currentColor" stroke-width="1.5" stroke-linecap="round" stroke-linejoin="round"></path>
    </symbol>

    <symbol viewBox="0 0 25 25" fill="currentColor" id="close">
        <path d="M9.84606 12.4986L0.552631 3.20519C-0.1806 2.47196 -0.1806 1.28315 0.552631 0.549923C1.28586 -0.183308 2.47466 -0.183308 3.20789 0.549923L12.5013 9.84335L21.792 0.552631C22.5253 -0.1806 23.7141 -0.1806 24.4473 0.552631C25.1805 1.28586 25.1805 2.47466 24.4473 3.20789L15.1566 12.4986L24.45 21.792C25.1832 22.5253 25.1832 23.7141 24.45 24.4473C23.7168 25.1805 22.528 25.1805 21.7947 24.4473L12.5013 15.1539L3.20519 24.45C2.47196 25.1832 1.28315 25.1832 0.549923 24.45C-0.183308 23.7168 -0.183308 22.528 0.549923 21.7947L9.84606 12.4986Z"></path>
    </symbol>

    <symbol viewBox="0 0 96 96" fill="currentColor" id="ok">
            <g>
                <path d="M43.041,67.254c-7.402-0.772-14.076-2.595-19.79-7.064c-0.709-0.556-1.441-1.092-2.088-1.713
			c-2.501-2.402-2.753-5.153-0.774-7.988c1.693-2.426,4.535-3.075,7.489-1.682c0.572,0.27,1.117,0.607,1.639,0.969
			c10.649,7.317,25.278,7.519,35.967,0.329c1.059-0.812,2.191-1.474,3.503-1.812c2.551-0.655,4.93,0.282,6.299,2.514
			c1.564,2.549,1.544,5.037-0.383,7.016c-2.956,3.034-6.511,5.229-10.461,6.761c-3.735,1.448-7.826,2.177-11.875,2.661
			c0.611,0.665,0.899,0.992,1.281,1.376c5.498,5.524,11.02,11.025,16.5,16.566c1.867,1.888,2.257,4.229,1.229,6.425
			c-1.124,2.4-3.64,3.979-6.107,3.81c-1.563-0.108-2.782-0.886-3.865-1.977c-4.149-4.175-8.376-8.273-12.441-12.527
			c-1.183-1.237-1.752-1.003-2.796,0.071c-4.174,4.297-8.416,8.528-12.683,12.735c-1.916,1.889-4.196,2.229-6.418,1.15
			c-2.362-1.145-3.865-3.556-3.749-5.979c0.08-1.639,0.886-2.891,2.011-4.014c5.441-5.433,10.867-10.88,16.295-16.322
			C42.183,68.197,42.518,67.813,43.041,67.254z"></path>
                <path d="M47.55,48.329c-13.205-0.045-24.033-10.992-23.956-24.218C23.67,10.739,34.505-0.037,47.84,0
			c13.362,0.036,24.087,10.967,24.02,24.478C71.792,37.677,60.889,48.375,47.55,48.329z M59.551,24.143
			c-0.023-6.567-5.253-11.795-11.807-11.801c-6.609-0.007-11.886,5.316-11.835,11.943c0.049,6.542,5.324,11.733,11.896,11.709
			C54.357,35.971,59.573,30.709,59.551,24.143z"></path>
            </g>
    </symbol>

    <symbol viewBox="0 0 140 140" fill="currentColor" id="youtube">
        <path d="M70,30.36c-22.31,0-44.61,1.71-49.51,5.12-9.8,6.83-9.8,62.19,0,69s89.22,6.83,99,0,9.8-62.19,0-69c-4.9-3.42-27.21-5.12-49.51-5.12h0ZM58.69,53.43L87.39,70,58.69,86.57V53.43Z"></path>
    </symbol>

    <symbol viewBox="0 0 140 140" fill="currentColor" id="vk">
        <path d="M127.62,39c0.84-2.8,0-4.86-4-4.86H110.41a5.71,5.71,0,0,0-5.75,3.74s-6.72,16.38-16.24,27c-3.08,3.08-4.48,4.06-6.16,4.06-0.84,0-2.1-1-2.1-3.78V39c0-3.36-.93-4.86-3.73-4.86H55.67a3.19,3.19,0,0,0-3.36,3c0,3.19,4.76,3.92,5.25,12.88V69.51c0,4.27-.77,5-2.45,5-4.48,0-15.38-16.45-21.84-35.28-1.27-3.66-2.54-5.14-5.91-5.14H14.14c-3.78,0-4.53,1.78-4.53,3.74,0,3.5,4.48,20.86,20.86,43.82,10.92,15.68,26.3,24.18,40.3,24.18,8.4,0,9.44-1.89,9.44-5.14V88.88c0-3.78.8-4.53,3.46-4.53,2,0,5.32,1,13.16,8.54,9,9,10.44,13,15.48,13h13.21c3.78,0,5.66-1.89,4.57-5.61s-5.47-9.1-11.15-15.48c-3.08-3.64-7.7-7.56-9.1-9.52-2-2.52-1.4-3.64,0-5.88C109.84,69.37,125.94,46.69,127.62,39Z"></path>
    </symbol>
</svg>