<svg xmlns="http://www.w3.org/2000/svg">

    <symbol viewBox="0 0 16 16" fill="currentColor" id="star-full">
        <path d="M8.451 1.49a1 1 0 00-.902 0c-.245.123-.378.359-.461.528-.09.182-.185.427-.296.712l-.928 2.39a3.374 3.374 0 01-.07.173v.002H5.79c-.036.006-.086.01-.184.02l-2.504.214c-.272.024-.51.044-.695.077-.176.032-.418.09-.6.274a1 1 0 00-.28.826c.03.256.186.45.307.583.126.139.302.3.503.485l1.987 1.823.125.118.002.002v.003c-.006.033-.016.079-.036.168l-.592 2.66a9.167 9.167 0 00-.145.73c-.024.184-.042.445.087.68a1 1 0 00.733.508c.265.038.504-.072.667-.16a9.15 9.15 0 00.632-.392l2.036-1.332c.086-.056.13-.085.164-.104L8 12.476l.003.002c.033.019.078.048.164.104l2.036 1.332c.246.161.458.3.632.393.163.087.401.197.667.159a1 1 0 00.733-.508c.13-.235.11-.496.087-.68a9.199 9.199 0 00-.145-.73l-.592-2.66c-.02-.09-.03-.135-.035-.168v-.003l.001-.002.125-.118 1.987-1.823c.201-.185.377-.346.503-.485.12-.133.276-.327.308-.583a1 1 0 00-.281-.826c-.182-.183-.424-.242-.6-.274-.185-.033-.423-.053-.695-.077l-2.504-.215a3.372 3.372 0 01-.184-.018h-.003l-.002-.003a3.421 3.421 0 01-.069-.172l-.928-2.39a9.644 9.644 0 00-.296-.713c-.083-.17-.216-.405-.46-.529z"></path>
    </symbol>

    <symbol viewBox="0 0 24 24" fill="currentColor" id="search">
        <path fill-rule="evenodd" clip-rule="evenodd" d="M18.293 19.707l-4-4 1.414-1.414 4 4a1 1 0 01-1.414 1.414z"></path>
        <path fill-rule="evenodd" clip-rule="evenodd" d="M10.5 16a5.5 5.5 0 100-11 5.5 5.5 0 000 11zm0 2a7.5 7.5 0 100-15 7.5 7.5 0 000 15z" ></path>
    </symbol>

    <symbol viewBox="0 0 24 24" fill="currentColor" id="arrow-right">
        <path fill-rule="evenodd" clip-rule="evenodd" d="M8.237 3.356a.994.994 0 00.122 1.409c2.83 2.362 6.585 5.738 8.225 7.224L8.34 19.253a.994.994 0 00-.084 1.411c.37.413 1.008.45 1.424.083l8.815-7.765c.187-.164.35-.343.436-.582a1.19 1.19 0 00.006-.787c-.082-.24-.24-.42-.424-.587-1.113-1.012-5.583-5.061-8.853-7.79a1.015 1.015 0 00-1.422.12z"></path>
    </symbol>

    <symbol viewBox="0 0 16 16" fill="currentColor" id="arrow-left">
        <path fill-rule="evenodd" clip-rule="evenodd" d="M10.576 2.52a.75.75 0 01-.096 1.056C8.71 5.05 6.94 6.524 5.17 8c1.768 1.476 3.54 2.95 5.309 4.424a.75.75 0 01-.96 1.152l-5.28-4.4a5.191 5.191 0 01-.322-.282 1.267 1.267 0 01-.311-.465 1.25 1.25 0 010-.858c.077-.213.209-.363.311-.465.093-.092.21-.19.321-.282l5.28-4.4a.75.75 0 011.057.096z"></path>
    </symbol>

    <symbol viewBox="0 0 24 24" fill="currentColor" id="menu">
        <path d="M4 7a1 1 0 011-1h14a1 1 0 110 2H5a1 1 0 01-1-1zM4 12a1 1 0 011-1h14a1 1 0 110 2H5a1 1 0 01-1-1zM5 16a1 1 0 100 2h14a1 1 0 100-2H5z"></path>
    </symbol>

    <symbol viewBox="0 0 25 25" fill="currentColor" id="close">
        <path d="M9.84606 12.4986L0.552631 3.20519C-0.1806 2.47196 -0.1806 1.28315 0.552631 0.549923C1.28586 -0.183308 2.47466 -0.183308 3.20789 0.549923L12.5013 9.84335L21.792 0.552631C22.5253 -0.1806 23.7141 -0.1806 24.4473 0.552631C25.1805 1.28586 25.1805 2.47466 24.4473 3.20789L15.1566 12.4986L24.45 21.792C25.1832 22.5253 25.1832 23.7141 24.45 24.4473C23.7168 25.1805 22.528 25.1805 21.7947 24.4473L12.5013 15.1539L3.20519 24.45C2.47196 25.1832 1.28315 25.1832 0.549923 24.45C-0.183308 23.7168 -0.183308 22.528 0.549923 21.7947L9.84606 12.4986Z"></path>
    </symbol>
</svg>